<svg width="31" height="30" viewBox="0 0 31 30" fill="none" xmlns="http://www.w3.org/2000/svg">
<path d="M15.2822 0C6.81294 0 0 6.87544 0 15.376C0 22.1889 4.37528 27.9393 10.4382 29.9707C11.1882 30.1269 11.4695 29.6269 11.4695 29.2206C11.4695 28.8769 11.4382 27.6268 11.4382 26.3767C7.18796 27.283 6.31291 24.5328 6.31291 24.5328C5.62536 22.7515 4.6253 22.2827 4.6253 22.2827C3.25021 21.3451 4.71905 21.3451 4.71905 21.3451C6.2504 21.4389 7.06295 22.939 7.06295 22.939C8.43804 25.2829 10.6257 24.6266 11.5007 24.2203C11.6257 23.2202 12.032 22.5327 12.4696 22.1577C9.09434 21.8139 5.53161 20.4701 5.53161 14.5634C5.53161 12.8758 6.12539 11.5007 7.09421 10.4382C6.93795 10.0631 6.40666 8.46929 7.25047 6.37541C7.25047 6.37541 8.5318 5.96913 11.4382 7.96926C12.6571 7.62549 13.9696 7.46923 15.251 7.46923C16.5323 7.46923 17.8449 7.65674 19.0637 7.96926C21.9702 5.96913 23.2515 6.37541 23.2515 6.37541C24.0953 8.50055 23.564 10.0631 23.4078 10.4382C24.4078 11.5007 24.9704 12.8758 24.9704 14.5634C24.9704 20.4701 21.4076 21.7827 18.0012 22.1577C18.5637 22.6265 19.0325 23.564 19.0325 25.0016C19.0325 27.0642 19.0012 28.7206 19.0012 29.2206C19.0012 29.6269 19.2825 30.1269 20.0325 29.9707C26.1267 27.9393 30.502 22.1889 30.502 15.376C30.5332 6.87544 23.689 0 15.2822 0Z" fill="#1B1F24"/>
</svg>
