<svg width="512" height="512" viewBox="0 0 512 512" fill="none" xmlns="http://www.w3.org/2000/svg">
<path d="M512 256C512 163.373 466.694 84.6552 393.007 39.7093V128.773C393.007 128.773 313.112 73.2094 256 76.8C160.688 82.7922 89.6 160.5 89.6 256C89.6 351.5 160.7 429.02 256 435.2C313.03 438.898 393.007 383.775 393.007 383.775V472.291C466.694 427.345 512 348.627 512 256Z" fill="#101010"/>
<path d="M0 256C0 397.385 114.615 512 256 512C304.758 512 354.22 495.95 393.007 472.291V383.775C393.007 383.775 313.03 438.898 256 435.2C160.7 429.02 89.6 351.5 89.6 256C89.6 160.5 160.688 82.7922 256 76.8C313.112 73.2094 393.007 128.773 393.007 128.773V39.7093C354.22 16.0502 304.758 0 256 0C114.615 0 0 114.615 0 256Z" fill="#FF8282"/>
<path fill-rule="evenodd" clip-rule="evenodd" d="M393.007 276.32C398.527 242.504 390.839 207.86 371.532 179.554C352.225 151.248 322.778 131.446 289.28 124.243C255.782 117.04 220.797 122.988 191.562 140.856C162.326 158.724 141.077 187.145 132.209 220.241C123.341 253.337 127.533 288.575 143.918 318.667C160.302 348.759 187.626 371.402 220.237 381.913C252.849 392.424 288.252 389.998 319.126 375.138C349.999 360.278 373.979 334.119 386.107 302.074L500.194 333.103C502.976 324.029 504.471 318.541 506.88 307.2L393.007 276.32ZM254.52 361.322C275.572 362.701 296.56 357.808 314.83 347.259C339.305 333.092 357.161 309.794 364.481 282.478C371.8 255.161 367.985 226.057 353.873 201.55C343.324 183.28 327.595 168.548 308.674 159.217C289.753 149.886 268.49 146.376 247.574 149.129C226.658 151.883 207.028 160.777 191.167 174.687C175.305 188.597 163.925 206.898 158.465 227.276C153.004 247.654 153.71 269.193 160.491 289.17C167.272 309.147 179.825 326.665 196.562 339.508C213.299 352.351 233.469 359.942 254.52 361.322Z" fill="#F0F0F0"/>
</svg>
